<mxfile host="app.diagrams.net" agent="Mozilla/5.0 (Windows NT 10.0; Win64; x64) AppleWebKit/537.36 (KHTML, like Gecko) Chrome/128.0.0.0 Safari/537.36" version="24.7.14">
  <diagram name="Сторінка-1" id="bP5T0VN1qtsktXTEAMdZ">
    <mxGraphModel dx="494" dy="1044" grid="1" gridSize="10" guides="1" tooltips="1" connect="1" arrows="1" fold="1" page="1" pageScale="1" pageWidth="1169" pageHeight="1654" math="0" shadow="0">
      <root>
        <mxCell id="0" />
        <mxCell id="1" parent="0" />
        <mxCell id="UUHGf3UjsDDTzM_FmHT9-2" value="" style="ellipse;html=1;shape=startState;" vertex="1" parent="1">
          <mxGeometry x="570" y="80" width="30" height="30" as="geometry" />
        </mxCell>
        <mxCell id="UUHGf3UjsDDTzM_FmHT9-3" value="" style="edgeStyle=orthogonalEdgeStyle;html=1;verticalAlign=bottom;endArrow=open;endSize=8;rounded=0;exitX=0.563;exitY=0.874;exitDx=0;exitDy=0;exitPerimeter=0;" edge="1" source="UUHGf3UjsDDTzM_FmHT9-2" parent="1" target="UUHGf3UjsDDTzM_FmHT9-5">
          <mxGeometry relative="1" as="geometry">
            <mxPoint x="585" y="130" as="targetPoint" />
            <Array as="points">
              <mxPoint x="585" y="106" />
            </Array>
          </mxGeometry>
        </mxCell>
        <mxCell id="UUHGf3UjsDDTzM_FmHT9-7" value="" style="edgeStyle=orthogonalEdgeStyle;rounded=0;orthogonalLoop=1;jettySize=auto;html=1;" edge="1" parent="1" source="UUHGf3UjsDDTzM_FmHT9-5" target="UUHGf3UjsDDTzM_FmHT9-6">
          <mxGeometry relative="1" as="geometry" />
        </mxCell>
        <mxCell id="UUHGf3UjsDDTzM_FmHT9-5" value="&lt;font color=&quot;#3399ff&quot;&gt;ввід &lt;/font&gt;x" style="rounded=1;whiteSpace=wrap;html=1;" vertex="1" parent="1">
          <mxGeometry x="550" y="130" width="70" height="30" as="geometry" />
        </mxCell>
        <mxCell id="UUHGf3UjsDDTzM_FmHT9-11" value="" style="edgeStyle=orthogonalEdgeStyle;rounded=0;orthogonalLoop=1;jettySize=auto;html=1;" edge="1" parent="1" source="UUHGf3UjsDDTzM_FmHT9-6" target="UUHGf3UjsDDTzM_FmHT9-10">
          <mxGeometry relative="1" as="geometry" />
        </mxCell>
        <mxCell id="UUHGf3UjsDDTzM_FmHT9-6" value="A=1/|x+2|+1" style="rounded=1;whiteSpace=wrap;html=1;" vertex="1" parent="1">
          <mxGeometry x="530" y="200" width="110" height="30" as="geometry" />
        </mxCell>
        <mxCell id="UUHGf3UjsDDTzM_FmHT9-13" style="edgeStyle=orthogonalEdgeStyle;rounded=0;orthogonalLoop=1;jettySize=auto;html=1;entryX=0;entryY=0.5;entryDx=0;entryDy=0;" edge="1" parent="1" source="UUHGf3UjsDDTzM_FmHT9-10" target="UUHGf3UjsDDTzM_FmHT9-12">
          <mxGeometry relative="1" as="geometry" />
        </mxCell>
        <mxCell id="UUHGf3UjsDDTzM_FmHT9-15" value="" style="edgeStyle=orthogonalEdgeStyle;rounded=0;orthogonalLoop=1;jettySize=auto;html=1;" edge="1" parent="1" source="UUHGf3UjsDDTzM_FmHT9-10" target="UUHGf3UjsDDTzM_FmHT9-14">
          <mxGeometry relative="1" as="geometry" />
        </mxCell>
        <mxCell id="UUHGf3UjsDDTzM_FmHT9-10" value="" style="rhombus;whiteSpace=wrap;html=1;" vertex="1" parent="1">
          <mxGeometry x="575" y="260" width="20" height="20" as="geometry" />
        </mxCell>
        <mxCell id="UUHGf3UjsDDTzM_FmHT9-16" style="edgeStyle=orthogonalEdgeStyle;rounded=0;orthogonalLoop=1;jettySize=auto;html=1;entryX=1;entryY=0.5;entryDx=0;entryDy=0;" edge="1" parent="1" source="UUHGf3UjsDDTzM_FmHT9-12" target="UUHGf3UjsDDTzM_FmHT9-14">
          <mxGeometry relative="1" as="geometry">
            <Array as="points">
              <mxPoint x="760" y="330" />
            </Array>
          </mxGeometry>
        </mxCell>
        <mxCell id="UUHGf3UjsDDTzM_FmHT9-12" value="7x&lt;sup&gt;2&lt;/sup&gt;+x-8" style="rounded=1;whiteSpace=wrap;html=1;" vertex="1" parent="1">
          <mxGeometry x="720" y="255" width="80" height="30" as="geometry" />
        </mxCell>
        <mxCell id="UUHGf3UjsDDTzM_FmHT9-19" value="" style="edgeStyle=orthogonalEdgeStyle;rounded=0;orthogonalLoop=1;jettySize=auto;html=1;" edge="1" parent="1" source="UUHGf3UjsDDTzM_FmHT9-14" target="UUHGf3UjsDDTzM_FmHT9-18">
          <mxGeometry relative="1" as="geometry" />
        </mxCell>
        <mxCell id="UUHGf3UjsDDTzM_FmHT9-14" value="" style="rhombus;whiteSpace=wrap;html=1;" vertex="1" parent="1">
          <mxGeometry x="575" y="320" width="20" height="20" as="geometry" />
        </mxCell>
        <mxCell id="UUHGf3UjsDDTzM_FmHT9-17" value="[x&amp;lt;1]" style="text;html=1;align=center;verticalAlign=bottom;resizable=0;points=[];autosize=1;strokeColor=none;fillColor=none;" vertex="1" parent="1">
          <mxGeometry x="595" y="240" width="50" height="30" as="geometry" />
        </mxCell>
        <mxCell id="UUHGf3UjsDDTzM_FmHT9-21" style="edgeStyle=orthogonalEdgeStyle;rounded=0;orthogonalLoop=1;jettySize=auto;html=1;" edge="1" parent="1" source="UUHGf3UjsDDTzM_FmHT9-18" target="UUHGf3UjsDDTzM_FmHT9-20">
          <mxGeometry relative="1" as="geometry" />
        </mxCell>
        <mxCell id="UUHGf3UjsDDTzM_FmHT9-25" value="" style="edgeStyle=orthogonalEdgeStyle;rounded=0;orthogonalLoop=1;jettySize=auto;html=1;" edge="1" parent="1" source="UUHGf3UjsDDTzM_FmHT9-18" target="UUHGf3UjsDDTzM_FmHT9-24">
          <mxGeometry relative="1" as="geometry" />
        </mxCell>
        <mxCell id="UUHGf3UjsDDTzM_FmHT9-18" value="" style="rhombus;whiteSpace=wrap;html=1;" vertex="1" parent="1">
          <mxGeometry x="575" y="380" width="20" height="20" as="geometry" />
        </mxCell>
        <mxCell id="UUHGf3UjsDDTzM_FmHT9-30" style="edgeStyle=orthogonalEdgeStyle;rounded=0;orthogonalLoop=1;jettySize=auto;html=1;entryX=1;entryY=0.5;entryDx=0;entryDy=0;" edge="1" parent="1" source="UUHGf3UjsDDTzM_FmHT9-20" target="UUHGf3UjsDDTzM_FmHT9-24">
          <mxGeometry relative="1" as="geometry">
            <Array as="points">
              <mxPoint x="760" y="460" />
            </Array>
          </mxGeometry>
        </mxCell>
        <mxCell id="UUHGf3UjsDDTzM_FmHT9-20" value="ctg*x+4/11&lt;sup&gt;1/2&lt;/sup&gt;" style="rounded=1;whiteSpace=wrap;html=1;" vertex="1" parent="1">
          <mxGeometry x="720" y="375" width="80" height="30" as="geometry" />
        </mxCell>
        <mxCell id="UUHGf3UjsDDTzM_FmHT9-22" value="&lt;p style=&quot;&quot;&gt;[1&amp;lt;=x &amp;amp;&amp;amp; x&amp;lt;=4]&lt;/p&gt;" style="text;html=1;align=center;verticalAlign=middle;resizable=0;points=[];autosize=1;strokeColor=none;fillColor=none;" vertex="1" parent="1">
          <mxGeometry x="585" y="355" width="110" height="50" as="geometry" />
        </mxCell>
        <mxCell id="UUHGf3UjsDDTzM_FmHT9-34" value="" style="edgeStyle=orthogonalEdgeStyle;rounded=0;orthogonalLoop=1;jettySize=auto;html=1;" edge="1" parent="1" source="UUHGf3UjsDDTzM_FmHT9-24" target="UUHGf3UjsDDTzM_FmHT9-33">
          <mxGeometry relative="1" as="geometry" />
        </mxCell>
        <mxCell id="UUHGf3UjsDDTzM_FmHT9-24" value="" style="rhombus;whiteSpace=wrap;html=1;" vertex="1" parent="1">
          <mxGeometry x="575" y="450" width="20" height="20" as="geometry" />
        </mxCell>
        <mxCell id="UUHGf3UjsDDTzM_FmHT9-41" style="edgeStyle=orthogonalEdgeStyle;rounded=0;orthogonalLoop=1;jettySize=auto;html=1;entryX=1;entryY=0.5;entryDx=0;entryDy=0;" edge="1" parent="1" source="UUHGf3UjsDDTzM_FmHT9-29" target="UUHGf3UjsDDTzM_FmHT9-39">
          <mxGeometry relative="1" as="geometry">
            <mxPoint x="650" y="600" as="targetPoint" />
            <Array as="points">
              <mxPoint x="760" y="590" />
            </Array>
          </mxGeometry>
        </mxCell>
        <mxCell id="UUHGf3UjsDDTzM_FmHT9-29" value="(1+|cos&lt;sup&gt;3&lt;/sup&gt;x|)&lt;sup&gt;1/2&lt;/sup&gt;" style="rounded=1;whiteSpace=wrap;html=1;" vertex="1" parent="1">
          <mxGeometry x="720" y="515" width="80" height="30" as="geometry" />
        </mxCell>
        <mxCell id="UUHGf3UjsDDTzM_FmHT9-36" value="" style="edgeStyle=orthogonalEdgeStyle;rounded=0;orthogonalLoop=1;jettySize=auto;html=1;entryX=0;entryY=0.5;entryDx=0;entryDy=0;" edge="1" parent="1" source="UUHGf3UjsDDTzM_FmHT9-33" target="UUHGf3UjsDDTzM_FmHT9-29">
          <mxGeometry relative="1" as="geometry">
            <mxPoint x="675" y="530" as="targetPoint" />
          </mxGeometry>
        </mxCell>
        <mxCell id="UUHGf3UjsDDTzM_FmHT9-40" value="" style="edgeStyle=orthogonalEdgeStyle;rounded=0;orthogonalLoop=1;jettySize=auto;html=1;" edge="1" parent="1" source="UUHGf3UjsDDTzM_FmHT9-33" target="UUHGf3UjsDDTzM_FmHT9-39">
          <mxGeometry relative="1" as="geometry" />
        </mxCell>
        <mxCell id="UUHGf3UjsDDTzM_FmHT9-33" value="" style="rhombus;whiteSpace=wrap;html=1;" vertex="1" parent="1">
          <mxGeometry x="575" y="520" width="20" height="20" as="geometry" />
        </mxCell>
        <mxCell id="UUHGf3UjsDDTzM_FmHT9-37" value="[x&amp;gt;4]" style="text;html=1;align=center;verticalAlign=bottom;resizable=0;points=[];autosize=1;strokeColor=none;fillColor=none;" vertex="1" parent="1">
          <mxGeometry x="600" y="500" width="50" height="30" as="geometry" />
        </mxCell>
        <mxCell id="UUHGf3UjsDDTzM_FmHT9-43" value="" style="edgeStyle=orthogonalEdgeStyle;rounded=0;orthogonalLoop=1;jettySize=auto;html=1;" edge="1" parent="1" source="UUHGf3UjsDDTzM_FmHT9-39" target="UUHGf3UjsDDTzM_FmHT9-42">
          <mxGeometry relative="1" as="geometry" />
        </mxCell>
        <mxCell id="UUHGf3UjsDDTzM_FmHT9-39" value="" style="rhombus;whiteSpace=wrap;html=1;" vertex="1" parent="1">
          <mxGeometry x="575" y="580" width="20" height="20" as="geometry" />
        </mxCell>
        <mxCell id="UUHGf3UjsDDTzM_FmHT9-46" value="" style="edgeStyle=orthogonalEdgeStyle;rounded=0;orthogonalLoop=1;jettySize=auto;html=1;" edge="1" parent="1" source="UUHGf3UjsDDTzM_FmHT9-42" target="UUHGf3UjsDDTzM_FmHT9-45">
          <mxGeometry relative="1" as="geometry" />
        </mxCell>
        <mxCell id="UUHGf3UjsDDTzM_FmHT9-42" value="y = A - B" style="rounded=1;whiteSpace=wrap;html=1;" vertex="1" parent="1">
          <mxGeometry x="550" y="630" width="70" height="20" as="geometry" />
        </mxCell>
        <mxCell id="UUHGf3UjsDDTzM_FmHT9-53" style="edgeStyle=orthogonalEdgeStyle;rounded=0;orthogonalLoop=1;jettySize=auto;html=1;entryX=0.5;entryY=0;entryDx=0;entryDy=0;" edge="1" parent="1" source="UUHGf3UjsDDTzM_FmHT9-45" target="UUHGf3UjsDDTzM_FmHT9-47">
          <mxGeometry relative="1" as="geometry" />
        </mxCell>
        <mxCell id="UUHGf3UjsDDTzM_FmHT9-45" value="&lt;font color=&quot;#3399ff&quot;&gt;вивід&amp;nbsp;&lt;/font&gt;&amp;nbsp;y" style="rounded=1;whiteSpace=wrap;html=1;" vertex="1" parent="1">
          <mxGeometry x="550" y="680" width="70" height="20" as="geometry" />
        </mxCell>
        <mxCell id="UUHGf3UjsDDTzM_FmHT9-54" style="edgeStyle=orthogonalEdgeStyle;rounded=0;orthogonalLoop=1;jettySize=auto;html=1;entryX=0.5;entryY=0;entryDx=0;entryDy=0;" edge="1" parent="1" source="UUHGf3UjsDDTzM_FmHT9-47" target="UUHGf3UjsDDTzM_FmHT9-48">
          <mxGeometry relative="1" as="geometry" />
        </mxCell>
        <mxCell id="UUHGf3UjsDDTzM_FmHT9-63" style="edgeStyle=orthogonalEdgeStyle;rounded=0;orthogonalLoop=1;jettySize=auto;html=1;entryX=0;entryY=0.5;entryDx=0;entryDy=0;" edge="1" parent="1" source="UUHGf3UjsDDTzM_FmHT9-47" target="UUHGf3UjsDDTzM_FmHT9-61">
          <mxGeometry relative="1" as="geometry" />
        </mxCell>
        <mxCell id="UUHGf3UjsDDTzM_FmHT9-47" value="" style="rhombus;whiteSpace=wrap;html=1;" vertex="1" parent="1">
          <mxGeometry x="575" y="720" width="20" height="20" as="geometry" />
        </mxCell>
        <mxCell id="UUHGf3UjsDDTzM_FmHT9-57" style="edgeStyle=orthogonalEdgeStyle;rounded=0;orthogonalLoop=1;jettySize=auto;html=1;entryX=0.5;entryY=0;entryDx=0;entryDy=0;" edge="1" parent="1" source="UUHGf3UjsDDTzM_FmHT9-48" target="UUHGf3UjsDDTzM_FmHT9-56">
          <mxGeometry relative="1" as="geometry" />
        </mxCell>
        <mxCell id="UUHGf3UjsDDTzM_FmHT9-64" style="edgeStyle=orthogonalEdgeStyle;rounded=0;orthogonalLoop=1;jettySize=auto;html=1;entryX=0;entryY=0.5;entryDx=0;entryDy=0;" edge="1" parent="1" source="UUHGf3UjsDDTzM_FmHT9-48" target="UUHGf3UjsDDTzM_FmHT9-62">
          <mxGeometry relative="1" as="geometry" />
        </mxCell>
        <mxCell id="UUHGf3UjsDDTzM_FmHT9-48" value="" style="rhombus;whiteSpace=wrap;html=1;" vertex="1" parent="1">
          <mxGeometry x="575" y="760" width="20" height="20" as="geometry" />
        </mxCell>
        <mxCell id="UUHGf3UjsDDTzM_FmHT9-60" style="edgeStyle=orthogonalEdgeStyle;rounded=0;orthogonalLoop=1;jettySize=auto;html=1;entryX=0.5;entryY=0;entryDx=0;entryDy=0;" edge="1" parent="1" source="UUHGf3UjsDDTzM_FmHT9-56" target="UUHGf3UjsDDTzM_FmHT9-58">
          <mxGeometry relative="1" as="geometry" />
        </mxCell>
        <mxCell id="UUHGf3UjsDDTzM_FmHT9-56" value="ctg*x+4/11&lt;sup&gt;1/2&lt;/sup&gt;" style="rounded=1;whiteSpace=wrap;html=1;" vertex="1" parent="1">
          <mxGeometry x="545" y="800" width="80" height="20" as="geometry" />
        </mxCell>
        <mxCell id="UUHGf3UjsDDTzM_FmHT9-75" style="edgeStyle=orthogonalEdgeStyle;rounded=0;orthogonalLoop=1;jettySize=auto;html=1;entryX=0.5;entryY=0;entryDx=0;entryDy=0;" edge="1" parent="1" source="UUHGf3UjsDDTzM_FmHT9-58" target="UUHGf3UjsDDTzM_FmHT9-74">
          <mxGeometry relative="1" as="geometry" />
        </mxCell>
        <mxCell id="UUHGf3UjsDDTzM_FmHT9-58" value="" style="rhombus;whiteSpace=wrap;html=1;" vertex="1" parent="1">
          <mxGeometry x="575" y="840" width="20" height="20" as="geometry" />
        </mxCell>
        <mxCell id="UUHGf3UjsDDTzM_FmHT9-68" style="edgeStyle=orthogonalEdgeStyle;rounded=0;orthogonalLoop=1;jettySize=auto;html=1;entryX=1;entryY=0.5;entryDx=0;entryDy=0;" edge="1" parent="1" source="UUHGf3UjsDDTzM_FmHT9-61" target="UUHGf3UjsDDTzM_FmHT9-69">
          <mxGeometry relative="1" as="geometry">
            <mxPoint x="780" y="850" as="targetPoint" />
            <Array as="points">
              <mxPoint x="820" y="730" />
              <mxPoint x="820" y="850" />
            </Array>
          </mxGeometry>
        </mxCell>
        <mxCell id="UUHGf3UjsDDTzM_FmHT9-61" value="7x&lt;sup&gt;2&lt;/sup&gt;+x-8" style="rounded=1;whiteSpace=wrap;html=1;" vertex="1" parent="1">
          <mxGeometry x="720" y="715" width="80" height="30" as="geometry" />
        </mxCell>
        <mxCell id="UUHGf3UjsDDTzM_FmHT9-71" style="edgeStyle=orthogonalEdgeStyle;rounded=0;orthogonalLoop=1;jettySize=auto;html=1;entryX=0.5;entryY=0;entryDx=0;entryDy=0;" edge="1" parent="1" source="UUHGf3UjsDDTzM_FmHT9-62" target="UUHGf3UjsDDTzM_FmHT9-69">
          <mxGeometry relative="1" as="geometry" />
        </mxCell>
        <mxCell id="UUHGf3UjsDDTzM_FmHT9-62" value="(1+|cos&lt;sup&gt;3&lt;/sup&gt;x|)&lt;sup&gt;1/2&lt;/sup&gt;" style="rounded=1;whiteSpace=wrap;html=1;" vertex="1" parent="1">
          <mxGeometry x="720" y="755" width="80" height="30" as="geometry" />
        </mxCell>
        <mxCell id="UUHGf3UjsDDTzM_FmHT9-65" value="[x&amp;lt;1]" style="text;html=1;align=center;verticalAlign=bottom;resizable=0;points=[];autosize=1;strokeColor=none;fillColor=none;" vertex="1" parent="1">
          <mxGeometry x="595" y="700" width="50" height="30" as="geometry" />
        </mxCell>
        <mxCell id="UUHGf3UjsDDTzM_FmHT9-66" value="[x&amp;gt;4]" style="text;html=1;align=center;verticalAlign=bottom;resizable=0;points=[];autosize=1;strokeColor=none;fillColor=none;" vertex="1" parent="1">
          <mxGeometry x="595" y="740" width="50" height="30" as="geometry" />
        </mxCell>
        <mxCell id="UUHGf3UjsDDTzM_FmHT9-72" style="edgeStyle=orthogonalEdgeStyle;rounded=0;orthogonalLoop=1;jettySize=auto;html=1;entryX=1;entryY=0.5;entryDx=0;entryDy=0;" edge="1" parent="1" source="UUHGf3UjsDDTzM_FmHT9-69" target="UUHGf3UjsDDTzM_FmHT9-58">
          <mxGeometry relative="1" as="geometry" />
        </mxCell>
        <mxCell id="UUHGf3UjsDDTzM_FmHT9-69" value="" style="rhombus;whiteSpace=wrap;html=1;" vertex="1" parent="1">
          <mxGeometry x="750" y="840" width="20" height="20" as="geometry" />
        </mxCell>
        <mxCell id="UUHGf3UjsDDTzM_FmHT9-77" style="edgeStyle=orthogonalEdgeStyle;rounded=0;orthogonalLoop=1;jettySize=auto;html=1;entryX=0.5;entryY=0;entryDx=0;entryDy=0;" edge="1" parent="1" source="UUHGf3UjsDDTzM_FmHT9-74" target="UUHGf3UjsDDTzM_FmHT9-76">
          <mxGeometry relative="1" as="geometry" />
        </mxCell>
        <mxCell id="UUHGf3UjsDDTzM_FmHT9-74" value="y = A - B" style="rounded=1;whiteSpace=wrap;html=1;" vertex="1" parent="1">
          <mxGeometry x="550" y="880" width="70" height="20" as="geometry" />
        </mxCell>
        <mxCell id="UUHGf3UjsDDTzM_FmHT9-79" value="" style="edgeStyle=orthogonalEdgeStyle;rounded=0;orthogonalLoop=1;jettySize=auto;html=1;" edge="1" parent="1" source="UUHGf3UjsDDTzM_FmHT9-76" target="UUHGf3UjsDDTzM_FmHT9-78">
          <mxGeometry relative="1" as="geometry" />
        </mxCell>
        <mxCell id="UUHGf3UjsDDTzM_FmHT9-76" value="&lt;font color=&quot;#3399ff&quot;&gt;вивід&amp;nbsp;&lt;/font&gt;&amp;nbsp;y" style="rounded=1;whiteSpace=wrap;html=1;" vertex="1" parent="1">
          <mxGeometry x="550" y="930" width="70" height="20" as="geometry" />
        </mxCell>
        <mxCell id="UUHGf3UjsDDTzM_FmHT9-78" value="" style="ellipse;html=1;shape=endState;" vertex="1" parent="1">
          <mxGeometry x="570" y="980" width="30" height="30" as="geometry" />
        </mxCell>
      </root>
    </mxGraphModel>
  </diagram>
</mxfile>
